<?xml version="1.0" encoding="utf-8"?>
<!-- Svg Vector Icons : http://www.onlinewebfonts.com/icon -->
<!DOCTYPE svg PUBLIC "-//W3C//DTD SVG 1.1//EN" "http://www.w3.org/Graphics/SVG/1.1/DTD/svg11.dtd">
<svg version="1.1" xmlns="http://www.w3.org/2000/svg" xmlns:xlink="http://www.w3.org/1999/xlink" x="0px" y="0px" viewBox="0 0 256 256" enable-background="new 0 0 256 256" xml:space="preserve">
<metadata> Svg Vector Icons : http://www.onlinewebfonts.com/icon </metadata>
<g><g><path fill="#000000" d="M174.4,135.2c-61.6-11.2-85.7,49.7-85.7,49.7c-12.5,32.1-38.8,34.3-38.8,34.3c71.5,63.2,133.4-5.1,133.4-5.1c4.5,12.1-20,26.3-20,26.3s46.9,4.4,57.7-42.3C231.8,151.5,174.4,135.2,174.4,135.2L174.4,135.2z"/><path fill="#000000" d="M176.1,107.7c-26.5-6.3-28.6,16.5-28.6,16.5c33.7-3.7,54.3,12.7,54.3,12.7C205,128,202.6,114.1,176.1,107.7L176.1,107.7z"/><path fill="#000000" d="M204.9,12.9l-23.4,81.3c0,0-1.3,11.1,13.4,5.5l23.4-81.3C218.3,18.4,219.2,4,204.9,12.9L204.9,12.9z"/><path fill="#000000" d="M33.6,206.3"/></g></g>
</svg>